# xmcd
#
# Track frame offsets:
#	150
#	16185
#	27544
#	41767
#	56173
#	77469
#	95498
#	112560
#	131108
#	144388
#	159035
#	175737
#	189078
#
# Disc length: 2679 seconds
#
# Revision: 0
# Processed by: cddbd v1.5.1PL0 Copyright (c) Steve Scherf et al.
# Submitted via: audiograbber 1.80
#
DISCID=960a750d
DTITLE=Huub Van Der Lubbe - Concordia
DYEAR=1900
DGENRE=
TTITLE0=Chinatown
TTITLE1=Nog even
TTITLE2=Iemand als jij
TTITLE3=Geregeld leven
TTITLE4=Mooier dan nu
TTITLE5=Mijn hart kan dat niet aan
TTITLE6=Geef me het zout
TTITLE7=Recht door zee
TTITLE8=Tegen de tijd
TTITLE9=Waar zijn de sterren aan de hemel
TTITLE10=Morgen begin ik meteen
TTITLE11=Geld maakt niet gelukkig
TTITLE12=Dinsdagavond dichtersavond
EXTD=
EXTT0=
EXTT1=
EXTT2=
EXTT3=
EXTT4=
EXTT5=
EXTT6=
EXTT7=
EXTT8=
EXTT9=
EXTT10=
EXTT11=
EXTT12=
PLAYORDER=
